PathFileType	4	(X/Y/Z)	C:\Users\WrightLab\Desktop\Jo\P5V18.trc
DataRate	CameraRate	NumFrames	NumMarkers	Units	OrigDataRate	OrigDataStartFrame	OrigNumFrames
100.00	100.00	       18	19	mm	100.00	670	       892
Frame#	Time	Headset_Front			Headset_Back			Headset_Left			Headset_Right			Left_Shoulder			Right_Shoulder			Sternum			C7			Left Elbow			Right Elbow			Left Wrist			Right Wrist			Left ASIS			Right ASIS			S2			Left Knee			Right Knee			Left Ankle			Right Ankle			
		X1	Y1	Z1	X2	Y2	Z2	X3	Y3	Z3	X4	Y4	Z4	X5	Y5	Z5	X6	Y6	Z6	X7	Y7	Z7	X8	Y8	Z8	X9	Y9	Z9	X10	Y10	Z10	X11	Y11	Z11	X12	Y12	Z12	X13	Y13	Z13	X14	Y14	Z14	X15	Y15	Z15	X16	Y16	Z16	X17	Y17	Z17	X18	Y18	Z18	X19	Y19	Z19	

670	6.690	532.33447	1549.91113	-261.17935	404.83835	1467.23401	-273.73514							321.01666	1506.78259	-21.99165	705.96564	1476.57202	-57.93299	520.96124	1314.77441	-118.68547	518.63702	1533.34363	72.60454	82.17519	1403.87048	-21.36418	841.88629	1248.83496	67.91250	-20.72561	1401.68213	-238.76323	847.19604	1038.40698	-62.73429	391.03757	927.56573	-83.64299	664.95563	956.28076	-55.87693	480.61792	993.96686	179.50504	415.31125	500.24133	-97.28982	700.64575	484.33826	108.69347	463.95224	100.93700	-50.24413	593.60242	167.12410	413.68469	
671	6.700	530.12524	1550.59802	-268.28461	403.31989	1468.19446	-281.80154							319.84613	1507.42834	-29.14850	704.59027	1477.21191	-67.40936	519.44971	1315.72424	-127.20459	518.35907	1533.63806	64.12616	81.59766	1404.11255	-28.88279	841.23828	1249.30115	57.86047	-21.99023	1401.59363	-245.41145	845.68329	1037.78137	-71.83337	389.99893	927.62744	-92.37651	663.67767	957.02142	-67.01768	481.57153	993.79059	170.66599	414.63657	500.45972	-102.93692	699.85199	485.07071	97.19714	463.98492	100.93417	-50.56030	595.75781	172.92157	407.98325	
672	6.710	528.71307	1551.80457	-276.05386	402.02417	1469.36462	-289.91818							318.66226	1507.70935	-36.54396	703.38080	1477.98486	-76.55013	517.64569	1316.49365	-136.36984	517.40417	1534.23340	56.18628	80.16779	1404.43372	-36.17839	839.49280	1248.82080	48.39150	-23.45371	1401.74011	-253.42282	843.75128	1037.32556	-81.74363	388.87033	928.65863	-101.02531	662.32361	957.71844	-77.65250	481.96411	993.47986	161.97769	414.19339	500.27924	-108.13889	699.38934	485.46878	85.94756	464.46216	100.95588	-51.20807	598.02039	179.16220	401.49442	
673	6.720	526.96594	1553.44116	-284.80200	400.22040	1470.91895	-298.09552							318.38196	1508.79517	-44.74763	701.63196	1478.64636	-86.70358	516.04034	1317.64148	-144.68701	516.69757	1534.93738	48.00404	78.96290	1405.28430	-43.33615	837.51074	1249.15869	38.38467	-24.85506	1402.54187	-260.01794	842.46625	1037.34705	-91.14561	388.43494	929.22742	-109.98844	660.68024	959.12238	-88.32889	482.13318	994.18243	153.51593	413.31174	500.33853	-113.55825	698.68842	486.39804	73.58311	464.86261	100.85795	-51.29638	601.10480	185.44527	392.93958	
674	6.730	525.43945	1555.06604	-292.46008	398.46286	1472.81360	-306.03085							317.20325	1509.38025	-52.14824	700.63062	1479.57751	-95.09602	514.16650	1319.09351	-154.36482	516.39233	1535.72302	39.55242	77.44627	1406.33789	-51.09301	836.27246	1249.99048	28.30965	-26.35229	1402.95166	-267.55338	840.76453	1037.45728	-100.44913	386.98221	930.26080	-118.13085	659.86975	960.17633	-99.27470	483.14740	994.06848	144.37630	411.93756	499.89252	-118.24627	698.57898	487.50192	61.34961	465.12656	100.82027	-51.46657	603.84674	192.66818	383.74796	
675	6.740	523.77466	1557.08765	-300.24997	397.11282	1474.30432	-313.74826							316.55838	1510.70825	-60.22773	699.50922	1480.73877	-103.82330	513.12439	1320.62988	-163.06667	515.41522	1536.22009	31.46211	76.14525	1407.26709	-59.68393	835.19556	1249.99536	18.46420	-28.02762	1403.39282	-274.98099	838.51099	1037.24341	-109.93488	386.03506	931.33118	-126.73291	657.89783	961.25287	-109.55327	482.45520	993.91821	131.61508	410.60468	499.71674	-122.57269	698.51245	488.98984	47.97685	465.28775	100.70089	-51.98318	607.39691	199.39656	372.90680	
676	6.750	521.84576	1559.49402	-308.76764	395.42838	1476.48560	-321.58093							315.16357	1511.12280	-66.52762	698.19879	1481.69971	-112.56996	511.57196	1321.59204	-171.92950	515.05902	1536.64233	23.77363	75.73627	1408.57532	-66.01000	834.07513	1251.16492	9.46648	-29.42729	1404.14124	-282.63135	837.34106	1037.68408	-119.81431	384.69958	931.65088	-134.92706	657.12469	962.29144	-119.15176	482.67380	994.53442	123.31818	408.77216	499.66653	-126.72284	698.96527	490.54742	34.33309	465.30603	100.58895	-52.16906	610.83154	207.34546	361.00146	
677	6.760	520.38409	1561.47766	-316.06738	393.66531	1478.87463	-329.47983							314.41818	1512.02124	-74.50157	696.71527	1483.04602	-122.07013	510.10068	1323.00183	-180.42488	514.94318	1536.99548	15.64680	74.61419	1409.47766	-73.03582	832.95056	1251.20264	0.19347	-30.29241	1405.22803	-290.38181	835.28308	1037.94983	-129.00020	383.31320	932.35901	-143.37123	655.08954	963.40295	-130.34341	483.75494	994.57703	114.27270	406.94934	499.08661	-130.65172	699.47260	491.86441	21.23550	465.16516	100.56236	-52.67575	614.77594	215.28406	348.14667	
678	6.770	518.93323	1563.49219	-323.00888	391.78403	1481.13745	-337.40356							313.41483	1512.74365	-81.92999	695.50702	1483.81348	-130.81534	508.81741	1323.98108	-189.04558	514.05981	1537.63525	7.81678	73.63355	1409.73962	-80.93703	831.56342	1251.47034	-10.51036	-31.54185	1405.91846	-297.57263	833.55298	1038.27747	-138.52574	381.71616	933.43658	-151.66760	653.73914	964.17249	-139.53902	484.22446	994.62177	105.39905	404.54379	498.97845	-134.60452	701.01062	493.68054	7.06206	465.09189	100.58810	-52.89705	618.29663	223.59341	334.62036	
679	6.780	517.18237	1565.80969	-330.70920	389.94415	1483.56335	-344.92474							312.60370	1513.44861	-90.52158	694.30670	1485.06873	-139.12805	507.61295	1325.25159	-197.35680	513.08246	1538.07532	0.14919	72.37936	1411.21814	-87.55699	830.49780	1252.28955	-19.43193	-32.71786	1406.79407	-304.31866	830.83325	1038.37000	-148.08690	380.21030	934.01465	-160.15967	652.13812	965.25299	-148.89752	485.34879	995.48096	97.60555	401.87305	498.23117	-137.20720	702.52570	494.34247	-6.55892	464.98602	100.49927	-53.46129	621.87878	232.62561	320.14294	
680	6.790	515.13275	1568.22339	-339.20520	387.93994	1486.25439	-353.06281							312.10675	1513.62268	-97.04659	693.50555	1485.92163	-147.37840	506.55099	1326.22656	-205.67336	512.29492	1538.67419	-7.52591	71.19763	1411.73218	-95.91511	829.28436	1252.23547	-28.91298	-33.83773	1407.28174	-311.18280	829.64191	1038.90015	-157.47400	378.53638	934.83942	-168.53368	650.61536	966.37183	-159.55824	484.25946	995.18494	90.18137	398.93982	498.19751	-140.54878	704.30756	495.18015	-21.18309	464.83246	100.57807	-53.76164	625.62347	241.41096	304.75214	
681	6.800	513.24194	1570.84521	-346.72714	386.05136	1488.95569	-360.89426							310.98462	1514.04004	-104.32256	692.63708	1487.20313	-155.71892	505.28629	1327.33533	-213.84074	511.30310	1539.52075	-15.06843	70.37741	1412.62427	-102.41008	828.53583	1252.45508	-38.98957	-34.84414	1408.34729	-318.28888	827.22223	1038.81348	-167.33025	376.81738	935.75403	-176.45920	649.47644	967.33362	-169.06659	484.92993	995.18579	81.59437	395.99014	497.74283	-143.00342	704.89874	495.11267	-35.71023	464.82870	100.78836	-54.28216	629.68292	249.52412	287.94193	
682	6.810	511.27362	1573.26013	-354.34039	384.10190	1491.31421	-368.59244							310.07507	1514.65588	-111.59575	691.74713	1488.13818	-163.74406	504.50101	1328.52307	-221.68010	510.83286	1540.25806	-23.09190	70.28118	1412.96265	-109.98616	827.18689	1252.89526	-48.23153	-35.49971	1409.08215	-325.63376	825.33234	1039.37195	-176.51018	374.84689	936.29584	-184.43095	648.36176	968.25586	-178.29301	485.69556	995.97546	73.15112	392.17847	497.74612	-145.76517	705.92926	497.09860	-53.09690	464.73105	100.97145	-54.47059	633.42645	256.96237	271.24081	
683	6.820	509.20224	1575.57227	-362.08463	382.27802	1494.75208	-377.07162							309.95871	1515.02808	-119.29823	690.85004	1489.03687	-171.94809	503.33621	1329.71558	-230.02899	511.43451	1541.82751	-29.61902	69.26575	1413.62085	-116.54808	826.30829	1253.07239	-57.53610	-36.59518	1410.04993	-332.52832	824.34338	1040.05188	-186.06725	373.01031	936.97974	-192.41818	646.99304	968.93317	-187.35915	487.02530	996.86725	69.40362	389.14578	497.38043	-148.66243	705.80847	498.28610	-71.56879	464.58566	101.22542	-54.69843	637.16840	263.73801	254.56039	
684	6.830	506.97412	1577.91296	-370.46313	380.18292	1496.60144	-384.84012							308.60934	1515.95911	-126.36868	689.72772	1489.91479	-179.40997	502.58722	1330.48303	-238.04491	510.50070	1542.80713	-37.19318	68.43748	1414.70959	-123.33265	824.82849	1253.79419	-67.72651	-37.52516	1410.96106	-339.38223	821.33447	1040.45068	-195.82381	371.12854	937.49121	-200.01198	646.22571	969.85327	-197.19916	487.19861	997.66302	61.81474	385.21478	497.94852	-151.15353	705.57996	499.81015	-91.80435	464.40570	101.66731	-55.09310	640.85651	269.86435	236.95537	
685	6.840	504.97818	1579.92468	-377.51443	378.07443	1498.55566	-392.38971							307.54031	1516.09631	-132.83195	688.63782	1491.10266	-188.34167	501.28134	1331.40845	-246.23836	510.46658	1542.85132	-45.42962	67.69671	1415.63989	-131.07481	823.79730	1254.30786	-76.79510	-38.26766	1411.51550	-345.46729	820.02722	1041.08447	-205.57152	369.15860	937.58319	-207.73669	644.85303	970.83478	-207.15146	487.07983	998.53552	53.53762	381.38315	497.78699	-153.42082	705.05280	500.36682	-113.24371	464.25812	101.91084	-55.37064	643.93451	275.11588	219.29758	
686	6.850	502.70224	1581.82825	-385.46417	375.91132	1500.30298	-399.89035							306.99875	1515.90637	-139.52905	687.50122	1492.03577	-197.61673	500.22238	1332.15613	-253.58879	509.66614	1544.35681	-53.31652	67.10563	1416.38110	-136.57097	823.13708	1255.22729	-85.74371	-39.03636	1412.64490	-351.35962	817.57062	1042.12634	-214.96071	367.25128	938.22345	-215.51717	644.27686	971.68036	-216.29218	486.90939	999.46844	46.29224	377.68890	498.22690	-156.56807	703.96277	501.03748	-134.81969	463.90649	102.38273	-56.02643	647.12695	279.22369	201.32007	
687	6.860	500.20029	1583.88098	-393.74097	373.69080	1502.12451	-407.33151							306.52545	1516.20862	-146.63687	686.58887	1493.12085	-206.03120	499.34042	1333.15857	-261.32742	509.85547	1544.48877	-61.28939	66.19948	1417.01379	-143.12173	822.81055	1255.65295	-95.79648	-39.96496	1413.70190	-358.37103	815.74390	1042.73157	-224.22224	365.79224	938.81439	-222.90871	643.67346	972.69574	-225.60970	487.06470	1000.76691	38.59275	373.39267	498.49063	-158.95673	703.25311	501.26212	-157.73300	463.64957	102.80297	-56.29064	650.62085	282.60910	182.38684	
